<?xml version="1.0" standalone="no"?>
<!DOCTYPE svg PUBLIC "-//W3C//DTD SVG 20010904//EN"
 "http://www.w3.org/TR/2001/REC-SVG-20010904/DTD/svg10.dtd">
<svg version="1.0" xmlns="http://www.w3.org/2000/svg"
 width="1603.000000pt" height="1603.000000pt" viewBox="0 0 1603.000000 1603.000000"
 preserveAspectRatio="xMidYMid meet">
<metadata>
Created by potrace 1.14, written by Peter Selinger 2001-2017
</metadata>
<g transform="translate(0.000000,1603.000000) scale(0.100000,-0.100000)"
fill="#000000" stroke="none">
<path d="M14412 15881 c-128 -77 -236 -141 -240 -143 -4 -2 -45 -25 -90 -53
-46 -27 -98 -58 -115 -69 -18 -10 -153 -91 -302 -179 -148 -88 -279 -166 -290
-172 -23 -12 -548 -324 -615 -365 -57 -35 -538 -321 -565 -336 -11 -6 -117
-68 -235 -139 -118 -70 -232 -137 -252 -149 -20 -12 -68 -39 -105 -62 -37 -22
-203 -121 -368 -219 -165 -97 -343 -203 -395 -234 -52 -32 -151 -90 -220 -130
-69 -41 -141 -84 -160 -96 -19 -12 -102 -62 -185 -110 -82 -49 -242 -143 -355
-210 -251 -149 -748 -445 -775 -462 -11 -7 -27 -15 -35 -19 -8 -4 -31 -18 -50
-30 -19 -12 -136 -81 -260 -154 -124 -73 -268 -159 -320 -190 -93 -56 -448
-267 -656 -390 -33 -19 -160 -95 -284 -168 -124 -74 -245 -146 -270 -160 -25
-13 -52 -31 -61 -38 -8 -8 -19 -14 -22 -14 -4 0 -37 -19 -74 -42 -38 -22 -81
-49 -98 -58 -87 -49 -364 -215 -387 -231 -15 -10 -30 -19 -33 -19 -3 0 -22
-11 -43 -24 -20 -13 -126 -76 -234 -140 -196 -116 -197 -117 -193 -149 2 -18
6 -68 10 -112 3 -44 8 -102 10 -130 3 -27 7 -75 10 -105 3 -30 7 -80 10 -110
2 -30 7 -83 10 -118 19 -237 25 -301 30 -342 2 -19 7 -73 10 -120 3 -47 8
-101 10 -120 2 -19 7 -73 11 -120 4 -47 8 -96 9 -110 1 -14 5 -61 9 -105 9
-112 16 -192 31 -350 2 -27 7 -81 10 -120 3 -38 7 -90 10 -115 5 -61 17 -200
19 -225 1 -11 5 -22 10 -23 7 -4 60 37 122 94 37 35 68 63 249 224 77 68 155
138 174 155 19 16 39 35 45 40 143 128 202 181 206 185 3 3 63 57 135 120 71
63 137 122 145 130 9 8 34 31 56 50 22 19 80 71 129 116 50 44 103 92 119 105
16 13 40 35 55 49 14 14 62 57 106 95 44 39 82 73 85 76 3 3 50 46 105 94 55
49 116 103 135 121 19 17 62 55 95 85 33 29 65 58 71 63 6 6 40 36 74 66 35
30 72 64 84 75 12 11 62 56 111 100 50 43 97 86 106 95 9 8 47 42 84 75 38 33
73 65 79 70 6 6 112 100 236 210 123 110 238 213 255 229 16 15 57 51 89 80
33 28 67 58 76 66 9 8 56 51 106 95 49 43 96 86 105 95 9 8 44 40 78 70 35 30
73 64 85 75 23 21 114 102 276 247 52 46 108 95 124 109 15 13 42 38 60 54 17
17 92 84 166 150 122 109 168 150 236 210 12 11 52 47 90 80 37 33 72 65 78
70 6 6 54 48 106 95 52 47 111 99 130 117 19 17 46 41 60 53 27 23 154 136
180 160 8 8 74 67 145 130 72 63 135 119 141 125 6 5 46 42 89 80 43 39 88 79
101 90 12 11 37 34 55 50 19 17 97 86 174 155 77 69 155 139 174 155 18 17 43
39 55 50 12 11 58 52 101 90 43 39 83 75 89 80 6 6 49 44 96 85 78 69 125 111
184 165 12 11 51 46 87 77 35 31 80 71 99 88 19 18 85 76 145 130 112 100 124
110 255 228 107 97 175 158 265 237 43 39 89 79 101 90 25 23 40 36 229 205
157 139 206 184 246 220 27 25 68 62 144 129 23 20 78 69 123 110 45 40 90 80
99 87 45 34 -9 4 -225 -125z"/>
<path d="M14789 15487 c-49 -44 -182 -163 -238 -213 -25 -23 -98 -87 -161
-144 -198 -178 -274 -245 -320 -286 -25 -21 -47 -42 -50 -45 -3 -3 -140 -126
-305 -274 -165 -147 -331 -296 -370 -331 -38 -34 -81 -72 -95 -84 -14 -12 -43
-38 -65 -58 -22 -20 -81 -73 -130 -117 -50 -44 -92 -82 -95 -85 -7 -7 -177
-159 -224 -201 -22 -19 -49 -43 -60 -54 -12 -11 -60 -54 -106 -95 -47 -41 -92
-81 -101 -90 -9 -8 -31 -29 -50 -45 -19 -17 -99 -89 -179 -160 -80 -72 -163
-146 -185 -165 -21 -19 -68 -62 -104 -94 -107 -96 -139 -125 -286 -256 -77
-69 -145 -129 -151 -135 -6 -5 -46 -42 -90 -81 -43 -39 -126 -113 -184 -165
-58 -52 -120 -108 -139 -124 -19 -17 -44 -39 -55 -50 -12 -11 -59 -54 -106
-95 -47 -41 -100 -88 -118 -105 -19 -16 -49 -43 -67 -60 -17 -16 -61 -55 -96
-86 -35 -31 -76 -67 -90 -80 -33 -31 -176 -159 -203 -182 -12 -10 -37 -33 -56
-50 -19 -18 -76 -68 -125 -112 -49 -44 -95 -84 -101 -90 -6 -5 -49 -44 -95
-86 -46 -42 -131 -118 -189 -170 -58 -51 -110 -98 -116 -103 -6 -6 -41 -38
-79 -71 -38 -33 -93 -82 -123 -110 -82 -74 -94 -85 -167 -150 -38 -33 -73 -64
-79 -70 -6 -5 -51 -46 -100 -90 -50 -44 -97 -87 -106 -95 -9 -8 -33 -29 -52
-47 -20 -18 -83 -73 -140 -124 -96 -86 -247 -221 -272 -244 -6 -6 -72 -64
-146 -130 -74 -66 -141 -127 -150 -135 -9 -8 -54 -49 -101 -90 -46 -41 -111
-100 -144 -130 -84 -76 -212 -190 -260 -231 -21 -19 -47 -41 -55 -49 -71 -66
-267 -242 -329 -296 -18 -16 -48 -42 -66 -59 -17 -16 -47 -43 -66 -60 -19 -16
-59 -52 -89 -80 -31 -27 -91 -81 -135 -120 -43 -38 -86 -77 -95 -85 -9 -8 -54
-49 -100 -90 -124 -110 -161 -143 -179 -161 -9 -8 -79 -71 -156 -139 -77 -69
-145 -129 -151 -135 -6 -5 -44 -40 -85 -76 -238 -212 -295 -264 -301 -273 -16
-24 -19 -7 -33 159 -3 39 -7 86 -9 105 -3 19 -8 76 -11 125 -3 50 -8 106 -10
125 -2 19 -7 67 -10 105 -3 39 -7 90 -10 115 -2 25 -7 79 -10 120 -3 41 -8 95
-10 120 -3 25 -7 74 -10 110 -3 36 -7 88 -10 115 -7 71 -13 148 -20 240 -3 44
-8 96 -10 115 -3 19 -7 64 -10 100 -8 99 -15 180 -20 230 -3 25 -7 83 -10 128
-4 46 -8 91 -10 100 -3 15 -17 208 -18 239 0 14 -11 8 -274 -153 -109 -67
-322 -197 -473 -289 -151 -92 -305 -188 -342 -212 -37 -23 -70 -43 -73 -43 -3
0 -31 -17 -63 -37 -31 -20 -75 -48 -97 -61 -22 -14 -56 -35 -75 -47 -37 -24
-336 -207 -382 -234 -14 -9 -63 -38 -108 -66 -45 -27 -94 -57 -110 -67 -15 -9
-92 -56 -171 -105 -79 -50 -308 -190 -509 -312 -201 -123 -376 -230 -390 -240
-14 -9 -51 -33 -83 -52 -32 -19 -66 -38 -75 -44 -34 -20 -259 -159 -317 -195
-33 -21 -172 -106 -310 -190 -137 -84 -272 -167 -300 -185 -27 -17 -130 -80
-228 -140 l-178 -108 6 -66 c3 -36 8 -87 10 -113 12 -122 15 -147 20 -210 11
-139 16 -204 20 -243 2 -22 7 -71 10 -110 3 -38 8 -88 10 -110 2 -22 7 -78 10
-125 4 -47 8 -98 10 -115 1 -16 6 -64 9 -105 4 -41 9 -95 11 -120 3 -25 8 -74
10 -110 3 -36 7 -90 10 -120 3 -30 7 -84 11 -120 3 -36 7 -85 9 -110 12 -123
17 -179 20 -225 2 -27 6 -75 9 -105 3 -30 8 -84 11 -120 3 -36 7 -90 10 -120
3 -30 7 -80 9 -110 3 -30 7 -77 10 -105 3 -27 8 -79 11 -115 14 -176 21 -259
30 -345 2 -22 7 -74 10 -115 7 -102 15 -187 20 -235 3 -22 7 -74 10 -115 3
-41 7 -95 10 -120 2 -25 7 -73 10 -108 3 -34 7 -88 10 -120 3 -31 7 -82 10
-112 2 -30 7 -80 10 -110 8 -89 17 -182 20 -225 8 -108 16 -203 20 -230 2 -16
7 -75 10 -130 4 -55 9 -109 11 -119 2 -11 6 -60 10 -110 3 -50 8 -99 10 -109
2 -11 6 -58 9 -105 3 -48 8 -103 10 -122 3 -19 7 -71 10 -115 4 -44 8 -96 10
-115 3 -19 7 -71 11 -115 3 -44 7 -98 10 -120 2 -22 6 -67 9 -100 11 -128 16
-182 20 -225 2 -25 7 -79 10 -120 3 -41 8 -93 10 -115 2 -22 7 -71 10 -110 3
-38 7 -92 10 -120 6 -67 17 -183 20 -220 2 -16 6 -72 10 -124 4 -52 8 -102 10
-110 2 -14 16 -181 18 -219 0 -10 13 -12 51 -8 28 3 85 8 126 12 41 3 91 7
110 9 19 2 71 6 115 10 44 3 96 8 115 10 19 2 71 7 115 10 175 14 305 25 345
30 19 2 73 7 120 11 47 4 99 8 115 10 17 1 66 6 110 9 44 3 96 8 115 10 36 4
127 11 240 20 36 3 81 7 100 10 19 2 69 7 110 10 73 6 103 9 225 20 33 2 89 7
125 10 36 3 91 7 123 11 32 3 81 7 110 9 126 10 194 16 227 20 34 5 55 7 220
20 190 15 289 24 455 39 28 3 84 8 125 11 41 4 91 8 110 10 19 2 69 6 110 9
41 4 95 9 120 11 25 3 77 7 115 10 105 9 164 14 220 19 28 3 84 8 125 11 41 4
91 8 110 10 19 2 73 6 120 10 47 4 99 9 115 11 17 1 66 6 110 9 44 4 96 8 115
10 19 2 71 7 115 10 44 4 96 8 115 10 19 2 71 7 115 10 44 4 96 8 115 10 19 2
71 6 115 10 44 4 96 8 115 10 92 9 171 15 235 20 39 3 90 7 115 10 25 2 74 7
110 10 36 3 85 8 110 10 25 2 74 7 110 10 101 8 181 16 225 20 22 2 74 6 115
10 83 6 176 14 230 20 19 2 75 7 125 11 49 3 118 9 153 13 l64 6 155 390 c85
215 219 557 299 760 80 204 151 384 159 400 7 17 50 125 95 240 45 116 151
383 235 595 83 212 188 477 233 590 44 113 137 349 207 525 69 176 162 412
206 525 45 113 85 214 90 225 5 11 35 88 68 170 108 279 223 570 237 602 8 17
14 34 14 38 0 4 7 21 15 38 8 18 79 196 158 397 203 513 324 820 338 855 7 17
13 32 13 35 1 6 61 157 83 210 8 19 19 44 23 55 5 11 50 126 100 255 153 389
221 564 230 585 5 11 37 90 70 175 33 85 65 164 70 175 4 11 70 178 145 370
76 193 143 364 150 380 7 17 25 62 39 100 15 39 31 79 36 90 5 11 38 94 74
185 35 91 112 287 171 435 59 149 122 311 141 360 19 50 39 99 44 110 5 11 53
130 106 265 99 253 213 542 327 830 90 227 396 1004 442 1120 21 52 107 269
191 483 85 213 154 390 154 393 0 3 7 20 15 37 8 18 58 142 110 277 53 135
125 317 160 405 151 382 243 616 331 840 52 132 101 254 108 270 8 17 17 41
21 55 4 14 12 31 17 38 20 24 -8 11 -43 -21z"/>
</g>
</svg>
